---
title: "Oneiric ffmpeg/winff with Oneiric"
date: 2011-11-07
forum: Multimedia Software
---

### Post by Sallée on 2011-11-07
Since upgrading to Oneiric, I have not been able to successfully encode or transcode a single video file using ffmpeg, winff, or openshot.  I have tried medibuntu, as well as compiling from source (using [this post]("http://ubuntuforums.org/showthread.php?t=786095") from FakeOutdoorsman).

Please help.  I have resorted to using extra computers laying around that are still loaded with (gasp) maverick for all my video creation and transcoding.  I would really like to use my primary machine for this again.  

Most of my trials have been through winff.  At first, I was getting errors about being missing a normal preset.  Now I am getting the following or similar depending on my selected preset, the only variation being in the number preceding 'kb':

```
ffmpeg version 0.7.2-4:0.7.2-1ubuntu1, Copyright (c) 2000-2011 the Libav developers
  built on Oct  2 2011 15:12:32 with gcc 4.6.1
  configuration: --extra-version='4:0.7.2-1ubuntu1' --arch=i386 --prefix=/usr --enable-vdpau --enable-bzlib --enable-libgsm --enable-libschroedinger --enable-libspeex --enable-libtheora --enable-libvorbis --enable-pthreads --enable-zlib --enable-libvpx --enable-runtime-cpudetect --enable-vaapi --enable-gpl --enable-postproc --enable-swscale --enable-x11grab --enable-libdc1394 --enable-shared --disable-static
  WARNING: library configuration mismatch
  avutil      configuration: --extra-version='4:0.7.2.1ubuntu1+medibuntu1' --arch=i386 --prefix=/usr --enable-vdpau --enable-bzlib --enable-libgsm --enable-libschroedinger --enable-libspeex --enable-libtheora --enable-libvorbis --enable-pthreads --enable-zlib --enable-libvpx --enable-runtime-cpudetect --enable-libopencore-amrnb --enable-libopencore-amrwb --enable-version3 --enable-vaapi --enable-libopenjpeg --enable-libfaac --enable-nonfree --enable-gpl --enable-postproc --enable-swscale --enable-x11grab --enable-libdirac --enable-libmp3lame --enable-librtmp --enable-libx264 --enable-libxvid --enable-libopencore-amrnb --enable-version3 --enable-libopencore-amrwb --enable-version3 --enable-libvo-aacenc --enable-version3 --enable-libvo-amrwbenc --enable-version3 --enable-libdc1394 --shlibdir=/usr/lib/i686/cmov --cpu=i686 --enable-shared --disable-static --disable-ffmpeg --disable-ffplay
  avcodec     configuration: --extra-version='4:0.7.2.1ubuntu1+medibuntu1' --arch=i386 --prefix=/usr --enable-vdpau --enable-bzlib --enable-libgsm --enable-libschroedinger --enable-libspeex --enable-libtheora --enable-libvorbis --enable-pthreads --enable-zlib --enable-libvpx --enable-runtime-cpudetect --enable-libopencore-amrnb --enable-libopencore-amrwb --enable-version3 --enable-vaapi --enable-libopenjpeg --enable-libfaac --enable-nonfree --enable-gpl --enable-postproc --enable-swscale --enable-x11grab --enable-libdirac --enable-libmp3lame --enable-librtmp --enable-libx264 --enable-libxvid --enable-libopencore-amrnb --enable-version3 --enable-libopencore-amrwb --enable-version3 --enable-libvo-aacenc --enable-version3 --enable-libvo-amrwbenc --enable-version3 --enable-libdc1394 --shlibdir=/usr/lib/i686/cmov --cpu=i686 --enable-shared --disable-static --disable-ffmpeg --disable-ffplay
  avformat    configuration: --extra-version='4:0.7.2-1ubuntu1' --arch=i386 --prefix=/usr --enable-vdpau --enable-bzlib --enable-libgsm --enable-libschroedinger --enable-libspeex --enable-libtheora --enable-libvorbis --enable-pthreads --enable-zlib --enable-libvpx --enable-runtime-cpudetect --enable-vaapi --enable-gpl --enable-postproc --enable-swscale --enable-x11grab --enable-libdc1394 --shlibdir=/usr/lib/i686/cmov --cpu=i686 --enable-shared --disable-static --disable-ffmpeg --disable-ffplay
  avdevice    configuration: --extra-version='4:0.7.2-1ubuntu1' --arch=i386 --prefix=/usr --enable-vdpau --enable-bzlib --enable-libgsm --enable-libschroedinger --enable-libspeex --enable-libtheora --enable-libvorbis --enable-pthreads --enable-zlib --enable-libvpx --enable-runtime-cpudetect --enable-vaapi --enable-gpl --enable-postproc --enable-swscale --enable-x11grab --enable-libdc1394 --shlibdir=/usr/lib/i686/cmov --cpu=i686 --enable-shared --disable-static --disable-ffmpeg --disable-ffplay
  avfilter    configuration: --extra-version='4:0.7.2-1ubuntu1' --arch=i386 --prefix=/usr --enable-vdpau --enable-bzlib --enable-libgsm --enable-libschroedinger --enable-libspeex --enable-libtheora --enable-libvorbis --enable-pthreads --enable-zlib --enable-libvpx --enable-runtime-cpudetect --enable-vaapi --enable-gpl --enable-postproc --enable-swscale --enable-x11grab --enable-libdc1394 --shlibdir=/usr/lib/i686/cmov --cpu=i686 --enable-shared --disable-static --disable-ffmpeg --disable-ffplay
  swscale     configuration: --extra-version='4:0.7.2-1ubuntu1' --arch=i386 --prefix=/usr --enable-vdpau --enable-bzlib --enable-libgsm --enable-libschroedinger --enable-libspeex --enable-libtheora --enable-libvorbis --enable-pthreads --enable-zlib --enable-libvpx --enable-runtime-cpudetect --enable-vaapi --enable-gpl --enable-postproc --enable-swscale --enable-x11grab --enable-libdc1394 --shlibdir=/usr/lib/i686/cmov --cpu=i686 --enable-shared --disable-static --disable-ffmpeg --disable-ffplay
  postproc    configuration: --extra-version='4:0.7.2-1ubuntu1' --arch=i386 --prefix=/usr --enable-vdpau --enable-bzlib --enable-libgsm --enable-libschroedinger --enable-libspeex --enable-libtheora --enable-libvorbis --enable-pthreads --enable-zlib --enable-libvpx --enable-runtime-cpudetect --enable-vaapi --enable-gpl --enable-postproc --enable-swscale --enable-x11grab --enable-libdc1394 --shlibdir=/usr/lib/i686/cmov --cpu=i686 --enable-shared --disable-static --disable-ffmpeg --disable-ffplay
  libavutil    51.  7. 0 / 51.  7. 0
  libavcodec   53.  5. 0 / 53.  5. 0
  libavformat  53.  2. 0 / 53.  2. 0
  libavdevice  53.  0. 0 / 53.  0. 0
  libavfilter   2.  4. 0 /  2.  4. 0
  libswscale    2.  0. 0 /  2.  0. 0
  libpostproc  52.  0. 0 / 52.  0. 0
Input #0, mov,mp4,m4a,3gp,3g2,mj2, from '~/Desktop/String Theory Performance/100_0002.MOV':
  Metadata:
    major_brand     : qt  
    minor_version   : 0
    compatible_brands: qt  
    creation_time   : 2011-11-04 18:00:10
    comment         : KODAK PlaySport Video Camera, Zx3
    comment-eng     : KODAK PlaySport Video Camera, Zx3
  Duration: 00:10:03.97, start: 0.000000, bitrate: 12130 kb/s
    Stream #0.0(eng): Video: h264 (Main), yuv420p, 1920x1080 [PAR 1:1 DAR 16:9], 11995 kb/s, 29.97 fps, 29.97 tbr, 90k tbn, 59.94 tbc
    Metadata:
      creation_time   : 2011-11-04 18:00:10
    Stream #0.1(eng): Audio: aac, 48000 Hz, stereo, s16, 128 kb/s
    Metadata:
      creation_time   : 2011-11-04 18:00:10
[NULL @ 0x9bccfa0] [Eval @ 0xbfe1edac] Invalid chars 'b' at the end of expression '96kb'
[NULL @ 0x9bccfa0] Unable to parse option value "96kb"
Invalid value '96kb' for option 'ab'
Press Enter to Continue
```

With ffmpeg I get:

```
ffmpeg version 0.7.2-4:0.7.2-1ubuntu1, Copyright (c) 2000-2011 the Libav developers
  built on Oct  2 2011 15:12:32 with gcc 4.6.1
  configuration: --extra-version='4:0.7.2-1ubuntu1' --arch=i386 --prefix=/usr --enable-vdpau --enable-bzlib --enable-libgsm --enable-libschroedinger --enable-libspeex --enable-libtheora --enable-libvorbis --enable-pthreads --enable-zlib --enable-libvpx --enable-runtime-cpudetect --enable-vaapi --enable-gpl --enable-postproc --enable-swscale --enable-x11grab --enable-libdc1394 --enable-shared --disable-static
  WARNING: library configuration mismatch
  avutil      configuration: --extra-version='4:0.7.2.1ubuntu1+medibuntu1' --arch=i386 --prefix=/usr --enable-vdpau --enable-bzlib --enable-libgsm --enable-libschroedinger --enable-libspeex --enable-libtheora --enable-libvorbis --enable-pthreads --enable-zlib --enable-libvpx --enable-runtime-cpudetect --enable-libopencore-amrnb --enable-libopencore-amrwb --enable-version3 --enable-vaapi --enable-libopenjpeg --enable-libfaac --enable-nonfree --enable-gpl --enable-postproc --enable-swscale --enable-x11grab --enable-libdirac --enable-libmp3lame --enable-librtmp --enable-libx264 --enable-libxvid --enable-libopencore-amrnb --enable-version3 --enable-libopencore-amrwb --enable-version3 --enable-libvo-aacenc --enable-version3 --enable-libvo-amrwbenc --enable-version3 --enable-libdc1394 --shlibdir=/usr/lib/i686/cmov --cpu=i686 --enable-shared --disable-static --disable-ffmpeg --disable-ffplay
  avcodec     configuration: --extra-version='4:0.7.2.1ubuntu1+medibuntu1' --arch=i386 --prefix=/usr --enable-vdpau --enable-bzlib --enable-libgsm --enable-libschroedinger --enable-libspeex --enable-libtheora --enable-libvorbis --enable-pthreads --enable-zlib --enable-libvpx --enable-runtime-cpudetect --enable-libopencore-amrnb --enable-libopencore-amrwb --enable-version3 --enable-vaapi --enable-libopenjpeg --enable-libfaac --enable-nonfree --enable-gpl --enable-postproc --enable-swscale --enable-x11grab --enable-libdirac --enable-libmp3lame --enable-librtmp --enable-libx264 --enable-libxvid --enable-libopencore-amrnb --enable-version3 --enable-libopencore-amrwb --enable-version3 --enable-libvo-aacenc --enable-version3 --enable-libvo-amrwbenc --enable-version3 --enable-libdc1394 --shlibdir=/usr/lib/i686/cmov --cpu=i686 --enable-shared --disable-static --disable-ffmpeg --disable-ffplay
  avformat    configuration: --extra-version='4:0.7.2-1ubuntu1' --arch=i386 --prefix=/usr --enable-vdpau --enable-bzlib --enable-libgsm --enable-libschroedinger --enable-libspeex --enable-libtheora --enable-libvorbis --enable-pthreads --enable-zlib --enable-libvpx --enable-runtime-cpudetect --enable-vaapi --enable-gpl --enable-postproc --enable-swscale --enable-x11grab --enable-libdc1394 --shlibdir=/usr/lib/i686/cmov --cpu=i686 --enable-shared --disable-static --disable-ffmpeg --disable-ffplay
  avdevice    configuration: --extra-version='4:0.7.2-1ubuntu1' --arch=i386 --prefix=/usr --enable-vdpau --enable-bzlib --enable-libgsm --enable-libschroedinger --enable-libspeex --enable-libtheora --enable-libvorbis --enable-pthreads --enable-zlib --enable-libvpx --enable-runtime-cpudetect --enable-vaapi --enable-gpl --enable-postproc --enable-swscale --enable-x11grab --enable-libdc1394 --shlibdir=/usr/lib/i686/cmov --cpu=i686 --enable-shared --disable-static --disable-ffmpeg --disable-ffplay
  avfilter    configuration: --extra-version='4:0.7.2-1ubuntu1' --arch=i386 --prefix=/usr --enable-vdpau --enable-bzlib --enable-libgsm --enable-libschroedinger --enable-libspeex --enable-libtheora --enable-libvorbis --enable-pthreads --enable-zlib --enable-libvpx --enable-runtime-cpudetect --enable-vaapi --enable-gpl --enable-postproc --enable-swscale --enable-x11grab --enable-libdc1394 --shlibdir=/usr/lib/i686/cmov --cpu=i686 --enable-shared --disable-static --disable-ffmpeg --disable-ffplay
  swscale     configuration: --extra-version='4:0.7.2-1ubuntu1' --arch=i386 --prefix=/usr --enable-vdpau --enable-bzlib --enable-libgsm --enable-libschroedinger --enable-libspeex --enable-libtheora --enable-libvorbis --enable-pthreads --enable-zlib --enable-libvpx --enable-runtime-cpudetect --enable-vaapi --enable-gpl --enable-postproc --enable-swscale --enable-x11grab --enable-libdc1394 --shlibdir=/usr/lib/i686/cmov --cpu=i686 --enable-shared --disable-static --disable-ffmpeg --disable-ffplay
  postproc    configuration: --extra-version='4:0.7.2-1ubuntu1' --arch=i386 --prefix=/usr --enable-vdpau --enable-bzlib --enable-libgsm --enable-libschroedinger --enable-libspeex --enable-libtheora --enable-libvorbis --enable-pthreads --enable-zlib --enable-libvpx --enable-runtime-cpudetect --enable-vaapi --enable-gpl --enable-postproc --enable-swscale --enable-x11grab --enable-libdc1394 --shlibdir=/usr/lib/i686/cmov --cpu=i686 --enable-shared --disable-static --disable-ffmpeg --disable-ffplay
  libavutil    51.  7. 0 / 51.  7. 0
  libavcodec   53.  5. 0 / 53.  5. 0
  libavformat  53.  2. 0 / 53.  2. 0
  libavdevice  53.  0. 0 / 53.  0. 0
  libavfilter   2.  4. 0 /  2.  4. 0
  libswscale    2.  0. 0 /  2.  0. 0
  libpostproc  52.  0. 0 / 52.  0. 0
Input #0, mov,mp4,m4a,3gp,3g2,mj2, from '~/Desktop/String Theory Performance/100_0003.MOV':
  Metadata:
    major_brand     : qt  
    minor_version   : 0
    compatible_brands: qt  
    creation_time   : 2011-11-04 18:15:30
    comment         : KODAK PlaySport Video Camera, Zx3
    comment-eng     : KODAK PlaySport Video Camera, Zx3
  Duration: 00:00:09.47, start: 0.000000, bitrate: 12504 kb/s
    Stream #0.0(eng): Video: h264 (Main), yuv420p, 1920x1080 [PAR 1:1 DAR 16:9], 12437 kb/s, 29.97 fps, 29.97 tbr, 90k tbn, 59.94 tbc
    Metadata:
      creation_time   : 2011-11-04 18:15:30
    Stream #0.1(eng): Audio: aac, 48000 Hz, stereo, s16, 128 kb/s
    Metadata:
      creation_time   : 2011-11-04 18:15:30
encoder 'aac' is experimental and might produce bad results.
Add '-strict experimental' if you want to use it.
Or use the non experimental encoder 'libfaac'.
```

Edit: Solved: Deprecated presets.  Uninstalled, manually edited out the 'b' , deleted ~/.winff /usr/share/winff and /usr/share/ffmpeg, reinstalled.

---

### Post by ron999 on 2011-11-07
Hi
You need to use a new **presets.xml** file.
Read about it here --> [http://code.google.com/p/winff/wiki/InstallPresetsxml]("http://code.google.com/p/winff/wiki/InstallPresetsxml")
For Oneric you _probably_ need libavcodec5[COLOR="Red"]3[/COLOR]-v1.xml.gz.

---

### Post by Sallée on 2011-11-07
Thanks, ron999.  I solved it right when you were posting, but I will keep this in mind if I get in any more trouble with it.

---

### Post by paul.gevers on 2011-11-08
You should be fine just deleting your ~/.winff/presets.xml file. The rest is up-to-date. Please see [http://code.google.com/p/winff/issues/detail?id=131](http://code.google.com/p/winff/issues/detail?id=131) for more details.

---

### Post by ubuntu-freak on 2011-11-08
The following command will keep the user presets file updated and valid:

**mv ~/.winff/presets.xml ~/.winff/presets-old.xml && sudo ln -s /usr/share/winff/presets-orig.xml ~/.winff/presets.xml**

Just thought I'd post that for anyone else who stumbles upon this thread. You'll also need FFMPEG libs from the Medibuntu repo if you want to use all of the original presets shipped with WinFF.

---

